  <svg width="489.84" height="105.16" viewBox="0 0 369.91 79.41" className="looka-1j8o68f">
        <g transform="matrix(0.8824, 0, 0, 0.8824, -6.0741, -4.4118)" fill="#111111">
          <path d="M50.537,5h-8.186c-0.798,0-1.456,0.743-1.456,1.651c0,0,0.662,4.939,0.662,12.361c0,7.423-0.662,12.36-0.662,12.36c0,0.907,0.658,1.649,1.456,1.649h8.186c0.798,0,1.454-0.742,1.454-1.649c0,0-0.532-5.834-0.532-12.36c0-6.529,0.532-12.361,0.532-12.361C51.991,5.743,51.335,5,50.537,5z M50.537,35.989h-8.186c-0.798,0-1.456,0.744-1.456,1.649c0,0,0.662,4.939,0.662,12.362c0,7.422-0.662,12.359-0.662,12.359c0,0.908,0.658,1.649,1.456,1.649h8.186c0.798,0,1.454-0.741,1.454-1.649c0,0-0.532-5.832-0.532-12.359c0-6.53,0.532-12.362,0.532-12.362C51.991,36.733,51.335,35.989,50.537,35.989z M50.537,66.978h-8.186c-0.798,0-1.456,0.743-1.456,1.649c0,0,0.662,4.941,0.662,12.361c0,7.423-0.662,12.361-0.662,12.361c0,0.906,0.658,1.65,1.456,1.65h8.186c0.798,0,1.454-0.744,1.454-1.65c0,0-0.532-5.831-0.532-12.361c0-6.527,0.532-12.361,0.532-12.361C51.991,67.721,51.335,66.978,50.537,66.978z M66.928,38.567H59.1c-0.764,0-1.39,0.712-1.39,1.58c0,0,0.633,4.725,0.633,11.82S57.71,63.786,57.71,63.786c0,0.87,0.626,1.58,1.39,1.58h7.828c0.765,0,1.391-0.71,1.391-1.58c0,0-0.507-5.574-0.507-11.818s0.507-11.82,0.507-11.82C68.318,39.279,67.692,38.567,66.928,38.567z M66.928,68.203H59.1c-0.764,0-1.39,0.71-1.39,1.577c0,0,0.633,4.723,0.633,11.821c0,7.098-0.633,11.82-0.633,11.82c0,0.87,0.626,1.578,1.39,1.578h7.828c0.765,0,1.391-0.708,1.391-1.578c0,0-0.507-5.576-0.507-11.82c0-6.242,0.507-11.821,0.507-11.821C68.318,68.913,67.692,68.203,66.928,68.203z M76.879,45.963c-2.461,4.924-10.291,13.646-7.159,22.24C77.325,62.033,74.866,56.03,76.879,45.963z M93.116,62.357c-5.462,0.672-17.06-1.022-22.483,6.339C79.978,71.617,83.616,66.252,93.116,62.357z M70.723,69.73c2.738,9.401,9.223,9.462,17.723,15.224C84.86,80.772,79.855,70.177,70.723,69.73z M37.75,33.042c3.537-9.707-5.309-19.562-8.09-25.126C31.934,19.288,29.156,26.07,37.75,33.042z M36.716,33.614C29.703,23.61,14.16,25.503,6.884,24.43C19.451,29.929,24.135,37.218,36.716,33.614z M24.297,45.963c6.275-4.25,11.064-4.297,13.085-11.237C30.638,35.055,26.943,42.881,24.297,45.963z"></path>
        </g>
        <g transform="matrix(2.4387, 0, 0, 2.4387, 92.0981, 8.2455)" fill="#111111">
          <path d="M18.54 5 l0.32 0 l0 15 l-2.22 0 l0 -11.26 l-5.78 11.26 l-1.26 0 l-5.78 -11.26 l0 11.26 l-2.22 0 l0 -15 l0.3 0 l2.38 0 l5.94 11.6 l5.94 -11.6 l2.38 0 z M26.6 11.64 c-1.7 0 -3.08 1.42 -3.08 3.44 c0 2 1.38 3.44 3.08 3.44 s3.08 -1.44 3.08 -3.44 c0 -2.02 -1.38 -3.44 -3.08 -3.44 z M26.6 9.94 c2.84 0 5.14 2.2 5.14 5.14 s-2.3 5.12 -5.14 5.12 s-5.14 -2.18 -5.14 -5.12 s2.3 -5.14 5.14 -5.14 z M38.68 11.64 c-1.7 0 -3.08 1.42 -3.08 3.44 c0 2 1.38 3.44 3.08 3.44 s3.08 -1.44 3.08 -3.44 c0 -2.02 -1.38 -3.44 -3.08 -3.44 z M38.68 9.94 c2.84 0 5.14 2.2 5.14 5.14 s-2.3 5.12 -5.14 5.12 s-5.14 -2.18 -5.14 -5.12 s2.3 -5.14 5.14 -5.14 z M45.62 15.08 c0 -2.94 2.1 -5.14 4.94 -5.14 c0.98 0 2.18 0.42 2.84 0.96 l0 -5.68 l2.22 0 l0 15 l-2.22 0 l0 -1.68 c-0.66 0.62 -1.86 1.04 -2.84 1.04 c-2.84 0 -4.94 -2.2 -4.94 -5.14 z M50.38 9.84 c-1.52 0 -2.82 1.2 -2.82 2.78 c0 1.56 1.3 2.78 2.82 2.78 c1.54 0 2.82 -1.22 2.82 -2.78 c0 -1.58 -1.28 -2.78 -2.82 -2.78 z"></path>
        </g>
      </svg>